<svg width="400" height="500" viewBox="0 0 400 500" xmlns="http://www.w3.org/2000/svg">
  <defs>
    <linearGradient id="bgCOMMANDERfemale" x1="0%" y1="0%" x2="0%" y2="100%">
      <stop offset="0%" stop-color="#fff8ef"/>
      <stop offset="100%" stop-color="#ffe0c2"/>
    </linearGradient>
    <radialGradient id="faceCOMMANDERfemale" cx="38%" cy="32%" r="70%">
      <stop offset="0%" stop-color="#fff6ec"/>
      <stop offset="100%" stop-color="#fde0bd"/>
    </radialGradient>
    <linearGradient id="furCOMMANDERfemale" x1="0%" y1="0%" x2="0%" y2="100%">
      <stop offset="0%" stop-color="#a3592a"/>
      <stop offset="100%" stop-color="#7c3f16"/>
    </linearGradient>
    <linearGradient id="bodyCOMMANDERfemale" x1="0%" y1="0%" x2="0%" y2="100%">
      <stop offset="0%" stop-color="#fdba74"/>
      <stop offset="100%" stop-color="#f97316"/>
    </linearGradient>
    <filter id="shadowCOMMANDERfemale" x="-30%" y="-30%" width="160%" height="160%">
      <feDropShadow dx="0" dy="6" stdDeviation="8" flood-color="#c2410c" flood-opacity="0.18"/>
    </filter>
  </defs>

  <rect width="400" height="500" fill="url(#bgCOMMANDERfemale)"/>
  <ellipse cx="200" cy="442" rx="104" ry="16" fill="#f97316" opacity="0.35"/>

  <path d="M 152 298 Q 118 362 126 424 L 158 416 Q 155 362 177 303 Z" fill="url(#bodyCOMMANDERfemale)" stroke="#c2410c" stroke-width="2"/>
  <path d="M 248 298 Q 282 362 274 424 L 242 416 Q 245 362 223 303 Z" fill="url(#bodyCOMMANDERfemale)" stroke="#c2410c" stroke-width="2"/>
  <ellipse cx="200" cy="378" rx="60" ry="54" fill="url(#bodyCOMMANDERfemale)" stroke="#c2410c" stroke-width="2.5"/>

  <path d="M 167 354 Q 200 368 233 354 L 228 394 Q 200 407 172 394 Z" fill="#fef3c7" stroke="#c2410c" stroke-width="2"/>
  <polygon points="200.0,361.0 197.1,368.0 189.5,368.6 195.3,373.5 193.5,380.9 200.0,376.9 206.5,380.9 204.7,373.5 210.5,368.6 202.9,368.0" fill="#f97316" stroke="#9a3d0a" stroke-width="1"/>

  <circle cx="147" cy="380" r="22" fill="url(#bodyCOMMANDERfemale)" stroke="#c2410c" stroke-width="2"/>
  <circle cx="253" cy="380" r="22" fill="url(#bodyCOMMANDERfemale)" stroke="#c2410c" stroke-width="2"/>
  <circle cx="139" cy="394" r="13.5" fill="#fff1e2" stroke="#c2410c" stroke-width="1.5"/>
  <circle cx="261" cy="394" r="13.5" fill="#fff1e2" stroke="#c2410c" stroke-width="1.5"/>

  <circle cx="200" cy="220" r="120" fill="url(#faceCOMMANDERfemale)" filter="url(#shadowCOMMANDERfemale)" stroke="#e7b585" stroke-width="2"/>

  
  <circle cx="104" cy="255" r="34" fill="url(#furCOMMANDERfemale)" stroke="#5a2c0f" stroke-width="2"/>
  <circle cx="296" cy="255" r="34" fill="url(#furCOMMANDERfemale)" stroke="#5a2c0f" stroke-width="2"/>
  <circle cx="104" cy="255" r="15" fill="#c97a3d"/>
  <circle cx="296" cy="255" r="15" fill="#c97a3d"/>
  <path d="M 92 195 C 84 128 132 78 200 78 C 268 78 316 128 308 195
           C 298 155 268 145 200 145 C 132 145 102 155 92 195 Z" fill="url(#furCOMMANDERfemale)" stroke="#5a2c0f" stroke-width="2"/>
  <path d="M 262 200 L 286 188 L 286 218 Z" fill="#fde047" stroke="#c99a1a" stroke-width="1"/>
  <path d="M 262 200 L 238 188 L 238 218 Z" fill="#fde047" stroke="#c99a1a" stroke-width="1"/>
  <circle cx="262" cy="200" r="7" fill="#f59e0b"/>
  
  <path d="M 150 96 Q 200 74 250 96 L 244 114 Q 200 98 156 114 Z" fill="#fde047" stroke="#c2761f" stroke-width="2"/>
  <circle cx="150" cy="300" r="10" fill="#fde047" stroke="#c2761f" stroke-width="1.5"/>
  <circle cx="250" cy="300" r="10" fill="#fde047" stroke="#c2761f" stroke-width="1.5"/>

  <circle cx="130" cy="250" r="24" fill="#f97316" opacity="0.4"/>
  <circle cx="270" cy="250" r="24" fill="#f97316" opacity="0.4"/>

  <circle cx="159" cy="230" r="19" fill="#3a2318"/>
  <circle cx="241" cy="230" r="19" fill="#3a2318"/>
  <circle cx="164" cy="223" r="6" fill="#ffffff"/>
  <circle cx="246" cy="223" r="6" fill="#ffffff"/>
  <circle cx="154" cy="236" r="3" fill="#ffffff" opacity="0.85"/>
  <circle cx="236" cy="236" r="3" fill="#ffffff" opacity="0.85"/>
  <path d="M 144 205 Q 159 197 174 206" stroke="#5a2c0f" stroke-width="4" fill="none" stroke-linecap="round"/><path d="M 226 206 Q 241 197 256 205" stroke="#5a2c0f" stroke-width="4" fill="none" stroke-linecap="round"/>

  <path d="M 188 264 Q 200 272 212 264" stroke="#c2410c" stroke-width="4.5" fill="none" stroke-linecap="round"/>

  
  <g transform="translate(300 296)">
    <rect x="-4" y="-46" width="8" height="60" rx="3" fill="#a3592a" stroke="#7c3f16" stroke-width="1.5"/>
    <path d="M 4 -46 L 40 -36 L 4 -22 Z" fill="#dc2626" stroke="#7c1d1d" stroke-width="2"/>
  </g>
  <g transform="translate(98 306) rotate(-8)">
    <rect x="-24" y="-10" width="48" height="20" rx="4" fill="#f4e8d0" stroke="#8a6a3a" stroke-width="2"/>
    <rect x="-24" y="-10" width="48" height="20" rx="4" fill="none" stroke="#c2761f" stroke-width="1" stroke-dasharray="3 3"/>
  </g>

  <text x="200" y="478" text-anchor="middle" font-family="Noto Sans CJK KR, sans-serif" font-size="23" font-weight="700" fill="#c2410c">군단 지휘관</text>
</svg>
