<svg width="400" height="500" viewBox="0 0 400 500" xmlns="http://www.w3.org/2000/svg">
  <defs>
    <linearGradient id="bgINVENTORmale" x1="0%" y1="0%" x2="0%" y2="100%">
      <stop offset="0%" stop-color="#fff8ef"/>
      <stop offset="100%" stop-color="#ffe0c2"/>
    </linearGradient>
    <radialGradient id="faceINVENTORmale" cx="38%" cy="32%" r="70%">
      <stop offset="0%" stop-color="#fff6ec"/>
      <stop offset="100%" stop-color="#fde0bd"/>
    </radialGradient>
    <linearGradient id="furINVENTORmale" x1="0%" y1="0%" x2="0%" y2="100%">
      <stop offset="0%" stop-color="#a3592a"/>
      <stop offset="100%" stop-color="#7c3f16"/>
    </linearGradient>
    <linearGradient id="bodyINVENTORmale" x1="0%" y1="0%" x2="0%" y2="100%">
      <stop offset="0%" stop-color="#fdba74"/>
      <stop offset="100%" stop-color="#f97316"/>
    </linearGradient>
    <filter id="shadowINVENTORmale" x="-30%" y="-30%" width="160%" height="160%">
      <feDropShadow dx="0" dy="6" stdDeviation="8" flood-color="#c2410c" flood-opacity="0.18"/>
    </filter>
  </defs>

  <rect width="400" height="500" fill="url(#bgINVENTORmale)"/>
  <ellipse cx="200" cy="442" rx="104" ry="16" fill="#f97316" opacity="0.35"/>

  <path d="M 152 298 Q 118 362 126 424 L 158 416 Q 155 362 177 303 Z" fill="url(#bodyINVENTORmale)" stroke="#c2410c" stroke-width="2"/>
  <path d="M 248 298 Q 282 362 274 424 L 242 416 Q 245 362 223 303 Z" fill="url(#bodyINVENTORmale)" stroke="#c2410c" stroke-width="2"/>
  <ellipse cx="200" cy="378" rx="60" ry="54" fill="url(#bodyINVENTORmale)" stroke="#c2410c" stroke-width="2.5"/>

  <path d="M 167 354 Q 200 368 233 354 L 228 394 Q 200 407 172 394 Z" fill="#fef3c7" stroke="#c2410c" stroke-width="2"/>
  <circle cx="200" cy="372" r="11" fill="#f97316" stroke="#9a3d0a" stroke-width="1.5"/><circle cx="200" cy="372" r="4.4" fill="#fff1e2"/>

  <circle cx="147" cy="380" r="22" fill="url(#bodyINVENTORmale)" stroke="#c2410c" stroke-width="2"/>
  <circle cx="253" cy="380" r="22" fill="url(#bodyINVENTORmale)" stroke="#c2410c" stroke-width="2"/>
  <circle cx="139" cy="394" r="13.5" fill="#fff1e2" stroke="#c2410c" stroke-width="1.5"/>
  <circle cx="261" cy="394" r="13.5" fill="#fff1e2" stroke="#c2410c" stroke-width="1.5"/>

  <circle cx="200" cy="220" r="120" fill="url(#faceINVENTORmale)" filter="url(#shadowINVENTORmale)" stroke="#e7b585" stroke-width="2"/>

  
  <path d="M 90 200 C 82 130 130 78 200 78 C 270 78 318 130 310 200
           C 300 160 270 150 200 150 C 130 150 100 160 90 200 Z" fill="url(#furINVENTORmale)" stroke="#5a2c0f" stroke-width="2"/>
  <circle cx="118" cy="130" r="26" fill="url(#furINVENTORmale)" stroke="#5a2c0f" stroke-width="2"/>
  <circle cx="282" cy="130" r="26" fill="url(#furINVENTORmale)" stroke="#5a2c0f" stroke-width="2"/>
  <circle cx="118" cy="130" r="11" fill="#c97a3d"/>
  <circle cx="282" cy="130" r="11" fill="#c97a3d"/>
  
  <circle cx="176" cy="176" r="17" fill="#e2e8f0" stroke="#64748b" stroke-width="3"/>
  <circle cx="224" cy="176" r="17" fill="#e2e8f0" stroke="#64748b" stroke-width="3"/>
  <path d="M 193 176 L 207 176" stroke="#64748b" stroke-width="3"/>
  <path d="M 159 176 Q 150 176 150 160" stroke="#64748b" stroke-width="3" fill="none"/>
  <path d="M 241 176 Q 250 176 250 160" stroke="#64748b" stroke-width="3" fill="none"/>

  <circle cx="130" cy="250" r="24" fill="#f97316" opacity="0.4"/>
  <circle cx="270" cy="250" r="24" fill="#f97316" opacity="0.4"/>

  <circle cx="159" cy="230" r="19" fill="#3a2318"/>
  <circle cx="241" cy="230" r="19" fill="#3a2318"/>
  <circle cx="164" cy="223" r="6" fill="#ffffff"/>
  <circle cx="246" cy="223" r="6" fill="#ffffff"/>
  <circle cx="154" cy="236" r="3" fill="#ffffff" opacity="0.85"/>
  <circle cx="236" cy="236" r="3" fill="#ffffff" opacity="0.85"/>
  

  <path d="M 188 264 Q 200 272 212 264" stroke="#c2410c" stroke-width="4.5" fill="none" stroke-linecap="round"/>

  
  <g transform="translate(300 298) rotate(20)">
    <path d="M -8 -30 L 8 -30 L 8 -6 L 20 -6 L 20 10 L 8 10 L 8 30 L -8 30 L -8 10 L -20 10 L -20 -6 L -8 -6 Z" fill="#94a3b8" stroke="#475569" stroke-width="2"/>
  </g>
  <g transform="translate(98 300)">
    <circle cx="0" cy="0" r="20" fill="none" stroke="#c2410c" stroke-width="5"/>
    <circle cx="0" cy="-20" r="4" fill="#c2410c"/>
    <circle cx="0" cy="20" r="4" fill="#c2410c"/>
    <circle cx="20" cy="0" r="4" fill="#c2410c"/>
    <circle cx="-20" cy="0" r="4" fill="#c2410c"/>
  </g>

  <text x="200" y="478" text-anchor="middle" font-family="Noto Sans CJK KR, sans-serif" font-size="23" font-weight="700" fill="#c2410c">마법 공학자</text>
</svg>
