<svg width="400" height="500" viewBox="0 0 400 500" xmlns="http://www.w3.org/2000/svg">
  <defs>
    <linearGradient id="bgSAGEfemale" x1="0%" y1="0%" x2="0%" y2="100%">
      <stop offset="0%" stop-color="#f2f7ff"/>
      <stop offset="100%" stop-color="#dbe9fb"/>
    </linearGradient>
    <radialGradient id="faceSAGEfemale" cx="38%" cy="32%" r="70%">
      <stop offset="0%" stop-color="#fff6ec"/>
      <stop offset="100%" stop-color="#fde0bd"/>
    </radialGradient>
    <linearGradient id="furSAGEfemale" x1="0%" y1="0%" x2="0%" y2="100%">
      <stop offset="0%" stop-color="#a3592a"/>
      <stop offset="100%" stop-color="#7c3f16"/>
    </linearGradient>
    <linearGradient id="bodySAGEfemale" x1="0%" y1="0%" x2="0%" y2="100%">
      <stop offset="0%" stop-color="#a8cbe8"/>
      <stop offset="100%" stop-color="#4a7ba6"/>
    </linearGradient>
    <filter id="shadowSAGEfemale" x="-30%" y="-30%" width="160%" height="160%">
      <feDropShadow dx="0" dy="6" stdDeviation="8" flood-color="#25406e" flood-opacity="0.18"/>
    </filter>
  </defs>

  <rect width="400" height="500" fill="url(#bgSAGEfemale)"/>
  <ellipse cx="200" cy="442" rx="104" ry="16" fill="#4a7ba6" opacity="0.35"/>

  <path d="M 152 298 Q 118 362 126 424 L 158 416 Q 155 362 177 303 Z" fill="url(#bodySAGEfemale)" stroke="#25406e" stroke-width="2"/>
  <path d="M 248 298 Q 282 362 274 424 L 242 416 Q 245 362 223 303 Z" fill="url(#bodySAGEfemale)" stroke="#25406e" stroke-width="2"/>
  <ellipse cx="200" cy="378" rx="60" ry="54" fill="url(#bodySAGEfemale)" stroke="#25406e" stroke-width="2.5"/>

  <path d="M 167 354 Q 200 368 233 354 L 228 394 Q 200 407 172 394 Z" fill="#fef3c7" stroke="#25406e" stroke-width="2"/>
  <circle cx="200" cy="372" r="11" fill="#4a7ba6" stroke="#25406e" stroke-width="1.5"/><path d="M 168 388 Q 200 400 232 388 L 236 405 Q 200 416 164 405 Z" fill="#25406e" stroke="#152c50" stroke-width="1.5"/>

  <circle cx="147" cy="380" r="22" fill="url(#bodySAGEfemale)" stroke="#25406e" stroke-width="2"/>
  <circle cx="253" cy="380" r="22" fill="url(#bodySAGEfemale)" stroke="#25406e" stroke-width="2"/>
  <circle cx="139" cy="394" r="13.5" fill="#fff1e2" stroke="#25406e" stroke-width="1.5"/>
  <circle cx="261" cy="394" r="13.5" fill="#fff1e2" stroke="#25406e" stroke-width="1.5"/>

  <circle cx="200" cy="220" r="120" fill="url(#faceSAGEfemale)" filter="url(#shadowSAGEfemale)" stroke="#e7b585" stroke-width="2"/>

  
  <circle cx="104" cy="255" r="34" fill="url(#furSAGEfemale)" stroke="#5a2c0f" stroke-width="2"/>
  <circle cx="296" cy="255" r="34" fill="url(#furSAGEfemale)" stroke="#5a2c0f" stroke-width="2"/>
  <circle cx="104" cy="255" r="15" fill="#c97a3d"/>
  <circle cx="296" cy="255" r="15" fill="#c97a3d"/>
  <path d="M 92 195 C 84 128 132 78 200 78 C 268 78 316 128 308 195
           C 298 155 268 145 200 145 C 132 145 102 155 92 195 Z" fill="url(#furSAGEfemale)" stroke="#5a2c0f" stroke-width="2"/>
  <path d="M 262 200 L 286 188 L 286 218 Z" fill="#fde047" stroke="#c99a1a" stroke-width="1"/>
  <path d="M 262 200 L 238 188 L 238 218 Z" fill="#fde047" stroke="#c99a1a" stroke-width="1"/>
  <circle cx="262" cy="200" r="7" fill="#f59e0b"/>
  
  <path d="M 264 198 l 3 8 l 8 3 l -8 3 l -3 8 l -3 -8 l -8 -3 l 8 -3 z" fill="#fde047"/>
  <path d="M 260 216 l 2 5 l 5 2 l -5 2 l -2 5 l -2 -5 l -5 -2 l 5 -2 z" fill="#fde047" opacity="0.8"/>
  <circle cx="159" cy="230" r="23" fill="none" stroke="#5a2c0f" stroke-width="3.5"/>
  <circle cx="241" cy="230" r="23" fill="none" stroke="#5a2c0f" stroke-width="3.5"/>
  <line x1="182" y1="230" x2="218" y2="230" stroke="#5a2c0f" stroke-width="3.5"/>

  <circle cx="130" cy="250" r="24" fill="#4a7ba6" opacity="0.4"/>
  <circle cx="270" cy="250" r="24" fill="#4a7ba6" opacity="0.4"/>

  <circle cx="159" cy="230" r="17" fill="#3a2318"/>
  <circle cx="241" cy="230" r="17" fill="#3a2318"/>
  <circle cx="164" cy="223" r="6" fill="#ffffff"/>
  <circle cx="246" cy="223" r="6" fill="#ffffff"/>
  <circle cx="154" cy="236" r="3" fill="#ffffff" opacity="0.85"/>
  <circle cx="236" cy="236" r="3" fill="#ffffff" opacity="0.85"/>
  

  <path d="M 188 264 Q 200 272 212 264" stroke="#25406e" stroke-width="4.5" fill="none" stroke-linecap="round"/>

  
  <g transform="translate(200 320)">
    <path d="M -46 -10 Q 0 -22 46 -10 L 46 14 Q 0 2 -46 14 Z" fill="#f4e8d0" stroke="#8a6a3a" stroke-width="2.5"/>
    <path d="M 0 -16 L 0 8" stroke="#8a6a3a" stroke-width="2"/>
    <circle cx="0" cy="-2" r="6" fill="#fde047" opacity="0.85"/>
  </g>

  <text x="200" y="478" text-anchor="middle" font-family="Noto Sans CJK KR, sans-serif" font-size="23" font-weight="700" fill="#25406e">고서의 현자</text>
</svg>
